<mxfile host="app.diagrams.net" modified="2024-03-30T23:01:12.080Z" agent="Mozilla/5.0 (Windows NT 10.0; Win64; x64) AppleWebKit/537.36 (KHTML, like Gecko) Chrome/116.0.0.0 Safari/537.36" etag="mTmlJ_KNTqQbhF4p6NyZ" version="24.2.1" type="device">
  <diagram name="Page-1" id="5Z7APpFcgfUc6ZyuO-cr">
    <mxGraphModel dx="1914" dy="1140" grid="1" gridSize="10" guides="1" tooltips="1" connect="1" arrows="1" fold="1" page="1" pageScale="1" pageWidth="827" pageHeight="1169" math="0" shadow="0">
      <root>
        <mxCell id="0" />
        <mxCell id="1" parent="0" />
        <mxCell id="42mja_NqprVF22DPiqrY-1" value="" style="sketch=0;pointerEvents=1;shadow=0;dashed=0;html=1;strokeColor=none;fillColor=#505050;labelPosition=center;verticalLabelPosition=bottom;verticalAlign=top;outlineConnect=0;align=center;shape=mxgraph.office.users.administrator;" vertex="1" parent="1">
          <mxGeometry x="30" y="72.5" width="58" height="56" as="geometry" />
        </mxCell>
        <mxCell id="42mja_NqprVF22DPiqrY-2" value="" style="sketch=0;pointerEvents=1;shadow=0;dashed=0;html=1;strokeColor=none;fillColor=#505050;labelPosition=center;verticalLabelPosition=bottom;verticalAlign=top;outlineConnect=0;align=center;shape=mxgraph.office.users.approver;" vertex="1" parent="1">
          <mxGeometry x="120" y="68" width="59" height="55" as="geometry" />
        </mxCell>
        <mxCell id="42mja_NqprVF22DPiqrY-3" value="" style="sketch=0;pointerEvents=1;shadow=0;dashed=0;html=1;strokeColor=none;fillColor=#505050;labelPosition=center;verticalLabelPosition=bottom;verticalAlign=top;outlineConnect=0;align=center;shape=mxgraph.office.users.call_center_agent;" vertex="1" parent="1">
          <mxGeometry x="220" y="71" width="46" height="55" as="geometry" />
        </mxCell>
        <mxCell id="42mja_NqprVF22DPiqrY-4" value="" style="sketch=0;pointerEvents=1;shadow=0;dashed=0;html=1;strokeColor=none;fillColor=#505050;labelPosition=center;verticalLabelPosition=bottom;verticalAlign=top;outlineConnect=0;align=center;shape=mxgraph.office.users.communications;" vertex="1" parent="1">
          <mxGeometry x="310" y="68" width="54" height="58" as="geometry" />
        </mxCell>
        <mxCell id="42mja_NqprVF22DPiqrY-5" value="" style="sketch=0;pointerEvents=1;shadow=0;dashed=0;html=1;strokeColor=none;fillColor=#505050;labelPosition=center;verticalLabelPosition=bottom;verticalAlign=top;outlineConnect=0;align=center;shape=mxgraph.office.users.conferencing_attendant;" vertex="1" parent="1">
          <mxGeometry x="410" y="71" width="53" height="59" as="geometry" />
        </mxCell>
        <mxCell id="42mja_NqprVF22DPiqrY-6" value="" style="sketch=0;pointerEvents=1;shadow=0;dashed=0;html=1;strokeColor=none;fillColor=#505050;labelPosition=center;verticalLabelPosition=bottom;verticalAlign=top;outlineConnect=0;align=center;shape=mxgraph.office.users.credentials;" vertex="1" parent="1">
          <mxGeometry x="30" y="160" width="56" height="58" as="geometry" />
        </mxCell>
        <mxCell id="42mja_NqprVF22DPiqrY-7" value="" style="sketch=0;pointerEvents=1;shadow=0;dashed=0;html=1;strokeColor=none;fillColor=#505050;labelPosition=center;verticalLabelPosition=bottom;verticalAlign=top;outlineConnect=0;align=center;shape=mxgraph.office.users.csv_file;" vertex="1" parent="1">
          <mxGeometry x="120" y="176" width="59" height="43" as="geometry" />
        </mxCell>
        <mxCell id="42mja_NqprVF22DPiqrY-8" value="" style="sketch=0;pointerEvents=1;shadow=0;dashed=0;html=1;strokeColor=none;fillColor=#505050;labelPosition=center;verticalLabelPosition=bottom;verticalAlign=top;outlineConnect=0;align=center;shape=mxgraph.office.users.distribution_group;" vertex="1" parent="1">
          <mxGeometry x="214" y="160" width="58" height="59" as="geometry" />
        </mxCell>
        <mxCell id="42mja_NqprVF22DPiqrY-9" value="" style="sketch=0;pointerEvents=1;shadow=0;dashed=0;html=1;strokeColor=none;fillColor=#505050;labelPosition=center;verticalLabelPosition=bottom;verticalAlign=top;outlineConnect=0;align=center;shape=mxgraph.office.users.dynamic_distribution_group;" vertex="1" parent="1">
          <mxGeometry x="306" y="160" width="58" height="59" as="geometry" />
        </mxCell>
        <mxCell id="42mja_NqprVF22DPiqrY-10" value="" style="sketch=0;pointerEvents=1;shadow=0;dashed=0;html=1;strokeColor=none;fillColor=#505050;labelPosition=center;verticalLabelPosition=bottom;verticalAlign=top;outlineConnect=0;align=center;shape=mxgraph.office.users.mail_user;" vertex="1" parent="1">
          <mxGeometry x="405" y="160" width="58" height="59" as="geometry" />
        </mxCell>
        <mxCell id="42mja_NqprVF22DPiqrY-11" value="" style="sketch=0;pointerEvents=1;shadow=0;dashed=0;html=1;strokeColor=none;fillColor=#505050;labelPosition=center;verticalLabelPosition=bottom;verticalAlign=top;outlineConnect=0;align=center;shape=mxgraph.office.users.meeting;" vertex="1" parent="1">
          <mxGeometry x="27" y="267" width="59" height="38" as="geometry" />
        </mxCell>
        <mxCell id="42mja_NqprVF22DPiqrY-12" value="" style="sketch=0;pointerEvents=1;shadow=0;dashed=0;html=1;strokeColor=none;fillColor=#505050;labelPosition=center;verticalLabelPosition=bottom;verticalAlign=top;outlineConnect=0;align=center;shape=mxgraph.office.users.mobile_user;" vertex="1" parent="1">
          <mxGeometry x="120" y="258" width="59" height="56" as="geometry" />
        </mxCell>
        <mxCell id="42mja_NqprVF22DPiqrY-13" value="" style="sketch=0;pointerEvents=1;shadow=0;dashed=0;html=1;strokeColor=none;fillColor=#505050;labelPosition=center;verticalLabelPosition=bottom;verticalAlign=top;outlineConnect=0;align=center;shape=mxgraph.office.users.online_user;" vertex="1" parent="1">
          <mxGeometry x="216" y="258" width="54" height="43" as="geometry" />
        </mxCell>
        <mxCell id="42mja_NqprVF22DPiqrY-14" value="" style="sketch=0;pointerEvents=1;shadow=0;dashed=0;html=1;strokeColor=none;fillColor=#505050;labelPosition=center;verticalLabelPosition=bottom;verticalAlign=top;outlineConnect=0;align=center;shape=mxgraph.office.users.on_premises_user;" vertex="1" parent="1">
          <mxGeometry x="320" y="250" width="49" height="59" as="geometry" />
        </mxCell>
        <mxCell id="42mja_NqprVF22DPiqrY-15" value="" style="sketch=0;pointerEvents=1;shadow=0;dashed=0;html=1;strokeColor=none;fillColor=#505050;labelPosition=center;verticalLabelPosition=bottom;verticalAlign=top;outlineConnect=0;align=center;shape=mxgraph.office.users.outlook_user;" vertex="1" parent="1">
          <mxGeometry x="405" y="250" width="63" height="55" as="geometry" />
        </mxCell>
        <mxCell id="42mja_NqprVF22DPiqrY-16" value="" style="sketch=0;pointerEvents=1;shadow=0;dashed=0;html=1;strokeColor=none;fillColor=#505050;labelPosition=center;verticalLabelPosition=bottom;verticalAlign=top;outlineConnect=0;align=center;shape=mxgraph.office.users.response_group;" vertex="1" parent="1">
          <mxGeometry x="30" y="350" width="58" height="54" as="geometry" />
        </mxCell>
        <mxCell id="42mja_NqprVF22DPiqrY-17" value="" style="sketch=0;pointerEvents=1;shadow=0;dashed=0;html=1;strokeColor=none;fillColor=#505050;labelPosition=center;verticalLabelPosition=bottom;verticalAlign=top;outlineConnect=0;align=center;shape=mxgraph.office.users.role_group;" vertex="1" parent="1">
          <mxGeometry x="120" y="350" width="59" height="56" as="geometry" />
        </mxCell>
        <mxCell id="42mja_NqprVF22DPiqrY-18" value="" style="sketch=0;pointerEvents=1;shadow=0;dashed=0;html=1;strokeColor=none;fillColor=#505050;labelPosition=center;verticalLabelPosition=bottom;verticalAlign=top;outlineConnect=0;align=center;shape=mxgraph.office.users.skype_commercial_user;" vertex="1" parent="1">
          <mxGeometry x="216" y="340" width="59" height="56" as="geometry" />
        </mxCell>
        <mxCell id="42mja_NqprVF22DPiqrY-19" value="" style="sketch=0;pointerEvents=1;shadow=0;dashed=0;html=1;strokeColor=none;fillColor=#505050;labelPosition=center;verticalLabelPosition=bottom;verticalAlign=top;outlineConnect=0;align=center;shape=mxgraph.office.users.skype_for_business_user;" vertex="1" parent="1">
          <mxGeometry x="315" y="342" width="59" height="56" as="geometry" />
        </mxCell>
        <mxCell id="42mja_NqprVF22DPiqrY-20" value="" style="sketch=0;pointerEvents=1;shadow=0;dashed=0;html=1;strokeColor=none;fillColor=#505050;labelPosition=center;verticalLabelPosition=bottom;verticalAlign=top;outlineConnect=0;align=center;shape=mxgraph.office.users.tenant_admin;" vertex="1" parent="1">
          <mxGeometry x="405" y="340" width="56" height="58" as="geometry" />
        </mxCell>
        <mxCell id="42mja_NqprVF22DPiqrY-21" value="" style="sketch=0;pointerEvents=1;shadow=0;dashed=0;html=1;strokeColor=none;fillColor=#505050;labelPosition=center;verticalLabelPosition=bottom;verticalAlign=top;outlineConnect=0;align=center;shape=mxgraph.office.users.universal_security_group;" vertex="1" parent="1">
          <mxGeometry x="121" y="450" width="58" height="58" as="geometry" />
        </mxCell>
        <mxCell id="42mja_NqprVF22DPiqrY-22" value="" style="sketch=0;pointerEvents=1;shadow=0;dashed=0;html=1;strokeColor=none;fillColor=#505050;labelPosition=center;verticalLabelPosition=bottom;verticalAlign=top;outlineConnect=0;align=center;shape=mxgraph.office.users.um_enabled_user;" vertex="1" parent="1">
          <mxGeometry x="30" y="440" width="58" height="59" as="geometry" />
        </mxCell>
        <mxCell id="42mja_NqprVF22DPiqrY-23" value="" style="sketch=0;pointerEvents=1;shadow=0;dashed=0;html=1;strokeColor=none;fillColor=#505050;labelPosition=center;verticalLabelPosition=bottom;verticalAlign=top;outlineConnect=0;align=center;shape=mxgraph.office.users.user;" vertex="1" parent="1">
          <mxGeometry x="220" y="444.5" width="46" height="50" as="geometry" />
        </mxCell>
        <mxCell id="42mja_NqprVF22DPiqrY-24" value="" style="sketch=0;pointerEvents=1;shadow=0;dashed=0;html=1;strokeColor=none;labelPosition=center;verticalLabelPosition=bottom;verticalAlign=top;outlineConnect=0;align=center;shape=mxgraph.office.users.user;fillColor=#2072B8;" vertex="1" parent="1">
          <mxGeometry x="315" y="444.5" width="46" height="50" as="geometry" />
        </mxCell>
        <mxCell id="42mja_NqprVF22DPiqrY-25" value="" style="sketch=0;pointerEvents=1;shadow=0;dashed=0;html=1;strokeColor=none;labelPosition=center;verticalLabelPosition=bottom;verticalAlign=top;outlineConnect=0;align=center;shape=mxgraph.office.users.user;fillColor=#DA4026;" vertex="1" parent="1">
          <mxGeometry x="411" y="444.5" width="46" height="50" as="geometry" />
        </mxCell>
        <mxCell id="42mja_NqprVF22DPiqrY-26" value="" style="sketch=0;pointerEvents=1;shadow=0;dashed=0;html=1;strokeColor=none;labelPosition=center;verticalLabelPosition=bottom;verticalAlign=top;outlineConnect=0;align=center;shape=mxgraph.office.users.user;fillColor=#7FBA42;" vertex="1" parent="1">
          <mxGeometry x="27" y="540" width="46" height="50" as="geometry" />
        </mxCell>
        <mxCell id="42mja_NqprVF22DPiqrY-27" value="" style="sketch=0;pointerEvents=1;shadow=0;dashed=0;html=1;strokeColor=none;labelPosition=center;verticalLabelPosition=bottom;verticalAlign=top;outlineConnect=0;align=center;shape=mxgraph.office.users.user;fillColor=#CCCBCB;" vertex="1" parent="1">
          <mxGeometry x="127" y="540" width="46" height="50" as="geometry" />
        </mxCell>
        <mxCell id="42mja_NqprVF22DPiqrY-28" value="" style="sketch=0;pointerEvents=1;shadow=0;dashed=0;html=1;strokeColor=none;fillColor=#505050;labelPosition=center;verticalLabelPosition=bottom;verticalAlign=top;outlineConnect=0;align=center;shape=mxgraph.office.users.user;" vertex="1" parent="1">
          <mxGeometry x="227" y="557.5" width="32" height="35" as="geometry" />
        </mxCell>
        <mxCell id="42mja_NqprVF22DPiqrY-29" value="" style="sketch=0;pointerEvents=1;shadow=0;dashed=0;html=1;strokeColor=none;fillColor=#505050;labelPosition=center;verticalLabelPosition=bottom;verticalAlign=top;outlineConnect=0;align=center;shape=mxgraph.office.users.users;" vertex="1" parent="1">
          <mxGeometry x="321.5" y="540" width="46" height="50" as="geometry" />
        </mxCell>
        <mxCell id="42mja_NqprVF22DPiqrY-30" value="" style="sketch=0;pointerEvents=1;shadow=0;dashed=0;html=1;strokeColor=none;labelPosition=center;verticalLabelPosition=bottom;verticalAlign=top;outlineConnect=0;align=center;shape=mxgraph.office.users.users;fillColor=#2072B8;" vertex="1" parent="1">
          <mxGeometry x="411" y="542.5" width="46" height="50" as="geometry" />
        </mxCell>
        <mxCell id="42mja_NqprVF22DPiqrY-31" value="" style="sketch=0;pointerEvents=1;shadow=0;dashed=0;html=1;strokeColor=none;fillColor=#505050;labelPosition=center;verticalLabelPosition=bottom;verticalAlign=top;outlineConnect=0;align=center;shape=mxgraph.office.users.user_external;" vertex="1" parent="1">
          <mxGeometry x="413" y="630" width="59" height="50" as="geometry" />
        </mxCell>
        <mxCell id="42mja_NqprVF22DPiqrY-32" value="" style="sketch=0;pointerEvents=1;shadow=0;dashed=0;html=1;strokeColor=none;fillColor=#505050;labelPosition=center;verticalLabelPosition=bottom;verticalAlign=top;outlineConnect=0;align=center;shape=mxgraph.office.users.user_accounts;" vertex="1" parent="1">
          <mxGeometry x="315" y="630" width="59" height="59" as="geometry" />
        </mxCell>
        <mxCell id="42mja_NqprVF22DPiqrY-33" value="" style="sketch=0;pointerEvents=1;shadow=0;dashed=0;html=1;strokeColor=none;fillColor=#505050;labelPosition=center;verticalLabelPosition=bottom;verticalAlign=top;outlineConnect=0;align=center;shape=mxgraph.office.users.users_two;fillColor=#CCCBCB;" vertex="1" parent="1">
          <mxGeometry x="213" y="630" width="57" height="43" as="geometry" />
        </mxCell>
        <mxCell id="42mja_NqprVF22DPiqrY-34" value="" style="sketch=0;pointerEvents=1;shadow=0;dashed=0;html=1;strokeColor=none;fillColor=#505050;labelPosition=center;verticalLabelPosition=bottom;verticalAlign=top;outlineConnect=0;align=center;shape=mxgraph.office.users.users_two;fillColor=#7FBA42;" vertex="1" parent="1">
          <mxGeometry x="120" y="630" width="57" height="43" as="geometry" />
        </mxCell>
        <mxCell id="42mja_NqprVF22DPiqrY-35" value="" style="sketch=0;pointerEvents=1;shadow=0;dashed=0;html=1;strokeColor=none;fillColor=#505050;labelPosition=center;verticalLabelPosition=bottom;verticalAlign=top;outlineConnect=0;align=center;shape=mxgraph.office.users.users_two;fillColor=#DA4026;" vertex="1" parent="1">
          <mxGeometry x="27" y="630" width="57" height="43" as="geometry" />
        </mxCell>
        <mxCell id="42mja_NqprVF22DPiqrY-36" value="" style="sketch=0;pointerEvents=1;shadow=0;dashed=0;html=1;strokeColor=none;fillColor=#505050;labelPosition=center;verticalLabelPosition=bottom;verticalAlign=top;outlineConnect=0;align=center;shape=mxgraph.office.users.user_services;" vertex="1" parent="1">
          <mxGeometry x="25" y="722" width="59" height="59" as="geometry" />
        </mxCell>
        <mxCell id="42mja_NqprVF22DPiqrY-37" value="" style="sketch=0;pointerEvents=1;shadow=0;dashed=0;html=1;strokeColor=none;fillColor=#505050;labelPosition=center;verticalLabelPosition=bottom;verticalAlign=top;outlineConnect=0;align=center;shape=mxgraph.office.users.user_store;" vertex="1" parent="1">
          <mxGeometry x="125" y="722" width="50" height="55" as="geometry" />
        </mxCell>
        <mxCell id="42mja_NqprVF22DPiqrY-38" value="" style="sketch=0;pointerEvents=1;shadow=0;dashed=0;html=1;strokeColor=none;fillColor=#505050;labelPosition=center;verticalLabelPosition=bottom;verticalAlign=top;outlineConnect=0;align=center;shape=mxgraph.office.users.writer;" vertex="1" parent="1">
          <mxGeometry x="216" y="720" width="54" height="59" as="geometry" />
        </mxCell>
      </root>
    </mxGraphModel>
  </diagram>
</mxfile>
